{"title":"Born on the Fourth of July 1989 DVDrip English Klam","uid":6586400,"size":2209276692,"categoryP":"video","categoryS":"movies","magnet":"?xt=urn:btih:e86e369a70e05ab529eeaa3d638c085a0367cf4d&amp;dn=Born+on+the+Fourth+of+July+1989+DVDrip+English+Klam&amp;tr=udp%3A%2F%2Ftracker.openbittorrent.com%3A80&amp;tr=udp%3A%2F%2Fopen.demonii.com%3A1337&amp;tr=udp%3A%2F%2Ftracker.coppersurfer.tk%3A6969&amp;tr=udp%3A%2F%2Fexodus.desync.com%3A6969","seeders":1,"leechers":0,"uploader":"Klambake","files":-1,"time":1312626667,"description":"[img] http://img17.imageshack.us/img17/4997/854lu.jpg[/img]\n\nWith: Tom Cruise, Raymond J. Barry and Kyra Sedgwick\n\nRon Kovic werd geboren op 4 juli 1946, de Amerikaanse nationale feestdag. Hij groeide op in een patriottische familie. Op school blinkt hij uit in sport en op 18-jarige leeftijd neemt hij vrijwillig dienst bij het marinekorps, wetend dat hij als getrainde vechtjas meteen naar Vietnam zal gestuurd worden. Zijn jeugdvriendin Donna gaat naar de universiteit en neemt er actief deel aan het anti-oorlogsprotest. In Vietnam geraakt Kovic zwaar gewond door een kogel in de ruggengraat en vertellen de dokters hem dat hij nooit meer zal kunnen lopen. Ron aanvaardt het oordeel niet en oefent dwangmatig zijn onderste ledematen. Maar langzaam begint Kovic zich vragen te stellen over de zin van de Vietnamese oorlog en raakt betrokken bij de veteranenbeweging die de terugtrekking van de Amerikaanse soldaten in Vietnam wil afdwingen.\n\nThe biography of Ron Kovic. Paralyzed in the Vietnam war, he becomes an anti-war and pro-human rights political activist after feeling betrayed by the country he fought for. \n\n------------------ Dutch Friends ------------------\nYou can find my Friends at: http://www.Film-Test.nl \n------ They got my dutchs subs ---- and more ------\n\nGeneral:\n\nComplete name                    : Born on the Fourth of July\\Born on the Fourth of July.avi\nFormat                           : AVI\nFormat/Info                      : Audio Video Interleave\nFile size                        : 2.06 GiB\nDuration                         : 2h 18mn\nOverall bit rate                 : 2 129 Kbps\n\nVideo:\n\nFormat                           : MPEG-4 Visual\nFormat profile                   : Simple@L3\nFormat settings, BVOP            : No\nFormat settings, QPel            : No\nFormat settings, GMC             : No warppoints\nFormat settings, Matrix          : Default (H.263)\nCodec ID                         : XVID\nCodec ID/Hint                    : XviD\nDuration                         : 2h 18mn\nBit rate                         : 1 735 Kbps\nWidth                            : 720 pixels\nHeight                           : 328 pixels\nDisplay aspect ratio             : 2.2:1\nFrame rate                       : 25.000 fps\nColor space                      : YUV\nChroma subsampling               : 4:2:0\nBit depth                        : 8 bits\nScan type                        : Progressive\nBits/(Pixel*Frame)               : 0.294\nStream size                      : 1.67 GiB (81%)\nWriting library                  : XviD 1.1.2 (UTC 2006-11-01)\n\nAudio:\n\nFormat                           : AC-3\nFormat/Info                      : Audio Coding 3\nMode extension                   : CM (complete main)\nCodec ID                         : 2000\nDuration                         : 2h 18mn\nBit rate mode                    : Constant\nBit rate                         : 384 Kbps\nChannel(s)                       : 6 channels\nChannel positions                : Front: L C R, Side: L R, LFE\nSampling rate                    : 48.0 KHz\nBit depth                        : 16 bits\nStream size                      : 380 MiB (18%)\nAlignment                        : Aligned on interleaves\nInterleave, duration             : 32 ms (0.80 video frame)\nInterleave, preload duration     : 352 ms\n\n","torrent":{"xt":"urn:btih:e86e369a70e05ab529eeaa3d638c085a0367cf4d","amp;dn":"Born+on+the+Fourth+of+July+1989+DVDrip+English+Klam","amp;tr":["udp%3A%2F%2Ftracker.openbittorrent.com%3A80","udp%3A%2F%2Fopen.demonii.com%3A1337","udp%3A%2F%2Ftracker.coppersurfer.tk%3A6969","udp%3A%2F%2Fexodus.desync.com%3A6969"],"infoHash":"e86e369a70e05ab529eeaa3d638c085a0367cf4d","infoHashBuffer":{"type":"Buffer","data":[232,110,54,154,112,224,90,181,41,238,170,61,99,140,8,90,3,103,207,77]},"announce":[],"urlList":[]}}